<?xml version="1.0" encoding="UTF-8"?>
<svg version="1.1" xmlns="http://www.w3.org/2000/svg" width="500" height="196">
<path d="M0 0 C9.69998667 8.65335998 15.41516633 22.0968165 16.17578125 34.9765625 C16.1857161 37.32780926 16.14017191 39.65341847 16 42 C17.216875 41.67 18.43375 41.34 19.6875 41 C22.87210604 40.19677787 25.6972843 39.79358027 29 40 C29 42.31 29 44.62 29 47 C30.98 47 32.96 47 35 47 C35.33 50.3 35.66 53.6 36 57 C37.134375 56.814375 38.26875 56.62875 39.4375 56.4375 C41.2009375 56.2209375 41.2009375 56.2209375 43 56 C44 57 44 57 44.1328125 59.90625 C44.13023437 61.0921875 44.12765625 62.278125 44.125 63.5 C44.12757813 64.6859375 44.13015625 65.871875 44.1328125 67.09375 C44 70 44 70 43 71 C42.83946185 72.87321948 42.83946185 72.87321948 42.875 75 C42.87242187 75.721875 42.86984375 76.44375 42.8671875 77.1875 C42.80304724 79.02089415 42.80304724 79.02089415 44 80 C44.23743476 83.82533783 44.39667966 87.64419229 44.51757812 91.47460938 C44.55173828 92.27576172 44.58589844 93.07691406 44.62109375 93.90234375 C44.65867798 95.00823853 44.65867798 95.00823853 44.69702148 96.13647461 C44.85314702 98.24279269 44.85314702 98.24279269 47 100 C47.04080783 101.99958364 47.04254356 104.00045254 47 106 C47.33 106.33 47.66 106.66 48 107 C48.28807277 109.13872208 48.50614083 111.28709843 48.6875 113.4375 C48.79449219 114.61183594 48.90148437 115.78617187 49.01171875 116.99609375 C49 120 49 120 47 122 C46.01 122 45.02 122 44 122 C44 131.57 44 141.14 44 151 C39.34219775 153.32890112 34.8682594 155.55797922 30.10083008 157.56542969 C29.00801224 158.02560486 27.9151944 158.48578003 26.78926086 158.9598999 C22.44708951 160.76348912 18.09950361 162.55330582 13.74422169 164.32500839 C10.46212721 165.6605049 7.18707118 167.00918125 3.92504883 168.39306641 C-19.87554849 178.46927306 -36.164894 181.56395087 -60.55639839 171.77981567 C-64.72563937 170.07255277 -68.86812152 168.30470717 -73.00793457 166.52752686 C-76.56743839 165.01007362 -80.14617715 163.5393748 -83.72265625 162.0625 C-88.92498779 159.9043848 -94.12050497 157.73141179 -99.30126953 155.52197266 C-100.33269073 155.08229156 -101.36411194 154.64261047 -102.42678833 154.18960571 C-105 153 -105 153 -108 151 C-108.34057617 148.11083984 -108.34057617 148.11083984 -108.29296875 144.4609375 C-108.28330078 143.15898437 -108.27363281 141.85703125 -108.26367188 140.515625 C-108.23860388 139.13541077 -108.21320902 137.75520244 -108.1875 136.375 C-108.17245517 134.98699337 -108.15876641 133.59897133 -108.14648438 132.2109375 C-108.1110257 128.80690491 -108.06160298 125.40364378 -108 122 C-108.639375 121.855625 -109.27875 121.71125 -109.9375 121.5625 C-112 121 -112 121 -113 120 C-112.93569089 117.85149121 -112.79864836 115.70494532 -112.625 113.5625 C-112.53476563 112.38816406 -112.44453125 111.21382813 -112.3515625 110.00390625 C-112 107 -112 107 -111 105 C-111.020625 104.175 -111.04125 103.35 -111.0625 102.5 C-111 100 -111 100 -109 98 C-108.67110612 96.14463576 -108.67110612 96.14463576 -108.68115234 94.00927734 C-108.66128265 93.18857758 -108.64141296 92.36787781 -108.62094116 91.52230835 C-108.60361435 90.19255478 -108.60361435 90.19255478 -108.5859375 88.8359375 C-108.56657135 87.92872955 -108.5472052 87.02152161 -108.5272522 86.08682251 C-108.46736784 83.18297796 -108.42103584 80.27909396 -108.375 77.375 C-108.33682835 75.40883667 -108.29777711 73.4426902 -108.2578125 71.4765625 C-108.16165909 66.6511783 -108.077661 61.82571582 -108 57 C-103.98843085 55.51423365 -103.51869696 56.19252122 -99 58 C-99 54.37 -99 50.74 -99 47 C-97.02 47 -95.04 47 -93 47 C-93 44.69 -93 42.38 -93 40 C-91.62422639 40.11617644 -90.24938955 40.24345777 -88.875 40.375 C-88.10929687 40.44460937 -87.34359375 40.51421875 -86.5546875 40.5859375 C-83.56451898 41.07058255 -80.84901131 41.98426553 -78 43 C-78.04640625 42.05640625 -78.0928125 41.1128125 -78.140625 40.140625 C-78.55641485 25.35038614 -74.58314133 12.9406666 -64.4375 1.8125 C-46.17918987 -15.39848832 -19.35717799 -15.131534 0 0 Z " fill="#495D78" transform="translate(113,15)"/>
<path d="M0 0 C0 3.3 0 6.6 0 10 C0.66 10 1.32 10 2 10 C2.495 14.455 2.495 14.455 3 19 C2.01 19 1.02 19 0 19 C0 24.94 0 30.88 0 37 C-8.4375 37.4375 -8.4375 37.4375 -11.09936523 37.56811523 C-14.85970733 37.42687477 -14.85970733 37.42687477 -18 39 C-17.93441361 40.83641894 -17.79594942 42.67037916 -17.625 44.5 C-17.47611328 46.11648437 -17.47611328 46.11648437 -17.32421875 47.765625 C-16.914981 51.84814136 -16.47545744 55.92465054 -16 60 C-10.72 60.33 -5.44 60.66 0 61 C0 69.91 0 78.82 0 88 C-12.125 92.75 -12.125 92.75 -16.19946289 94.34594727 C-22.95736768 96.99950735 -29.70362326 99.67867613 -36.43359375 102.40234375 C-37.80647339 102.9567168 -39.17935745 103.51107892 -40.55224609 104.06542969 C-42.55203483 104.87318678 -44.55097313 105.68279286 -46.54766846 106.49816895 C-48.40626602 107.25714552 -50.26753021 108.00958208 -52.12890625 108.76171875 C-53.72327515 109.410802 -53.72327515 109.410802 -55.34985352 110.07299805 C-58 111 -58 111 -61 111 C-61 81.3 -61 51.6 -61 21 C-49.7462041 16.49848164 -49.7462041 16.49848164 -45.3984375 14.98535156 C-44.42463135 14.6453009 -43.4508252 14.30525024 -42.44750977 13.95489502 C-41.43358154 13.60368591 -40.41965332 13.25247681 -39.375 12.890625 C-38.30628662 12.51895203 -37.23757324 12.14727905 -36.13647461 11.76434326 C-33.89819804 10.98672932 -31.65950399 10.21031613 -29.42041016 9.43505859 C-25.98067617 8.24330493 -22.54302067 7.04568737 -19.10546875 5.84765625 C-16.9246016 5.09079295 -14.74361625 4.33427014 -12.5625 3.578125 C-11.53237793 3.21881897 -10.50225586 2.85951294 -9.44091797 2.48931885 C-8.4923291 2.16187683 -7.54374023 1.83443481 -6.56640625 1.49707031 C-5.73052979 1.20713196 -4.89465332 0.9171936 -4.03344727 0.61846924 C-2 0 -2 0 0 0 Z " fill="#F3F8FD" transform="translate(153,76)"/>
<path d="M0 0 C5.424375 1.794375 10.84875 3.58875 16.4375 5.4375 C18.08935303 5.98204834 19.74120605 6.52659668 21.44311523 7.08764648 C34.72553911 11.49931689 47.81642807 16.25391411 61 21 C61 51.03 61 81.06 61 112 C50.875 108.625 50.875 108.625 46.20483398 106.73168945 C45.16443466 106.31148026 44.12403534 105.89127106 43.05210876 105.45832825 C41.96112381 105.01446274 40.87013885 104.57059723 39.74609375 104.11328125 C38.60463394 103.65140915 37.46317413 103.18953705 36.28712463 102.71366882 C32.66953332 101.24918838 29.05349965 99.78090548 25.4375 98.3125 C22.97353475 97.31389067 20.50921827 96.31615156 18.04492188 95.31835938 C12.02857952 92.8822571 6.01436175 90.44101083 0 88 C0 79.09 0 70.18 0 61 C7.92 60.505 7.92 60.505 16 60 C16.33 57.64875 16.66 55.2975 17 52.875 C17.10441406 52.14651855 17.20882813 51.41803711 17.31640625 50.66748047 C17.85201056 46.74927987 18.19225445 42.95323219 18 39 C13.73125051 34.73125051 6.02650595 37.35450035 0 37 C0 24.79 0 12.58 0 0 Z " fill="#F4F9FE" transform="translate(9,76)"/>
<path d="M0 0 C3.56940271 1.67261866 6.8054763 3.75530414 10.125 5.875 C18.69715054 11.24228013 27.04814536 15.15761319 37.30078125 15.09765625 C38.27724609 15.09443359 39.25371094 15.09121094 40.25976562 15.08789062 C41.77086914 15.07532227 41.77086914 15.07532227 43.3125 15.0625 C44.33923828 15.05798828 45.36597656 15.05347656 46.42382812 15.04882812 C48.94924388 15.03708201 51.47462952 15.01914771 54 15 C54 18.96 54 22.92 54 27 C51.40125 28.0209375 51.40125 28.0209375 48.75 29.0625 C34.21258353 35.15111207 18.33045267 44.33909466 11 59 C10.34 59 9.68 59 9 59 C7.73339238 57.35578869 6.53694454 55.6572705 5.375 53.9375 C-1.07019465 44.93724604 -8.36299874 39.93396066 -17.92578125 34.69921875 C-21 33 -21 33 -24 31 C-24.29296875 28.3984375 -24.29296875 28.3984375 -24.1875 25.375 C-24.16042969 24.37210938 -24.13335937 23.36921875 -24.10546875 22.3359375 C-24.07066406 21.56507812 -24.03585938 20.79421875 -24 20 C-23.45472656 19.85304688 -22.90945312 19.70609375 -22.34765625 19.5546875 C-14.86988582 17.33053014 -8.48454928 14.1216132 -3.5625 7.9375 C-2.17478843 5.32860224 -0.98299419 2.78515022 0 0 Z " fill="#F1F7FC" transform="translate(71,32)"/>
<path d="M0 0 C7.04318671 6.08119048 12.04707895 13.36559752 14.625 22.3125 C14.8125 25.3125 14.8125 25.3125 14.625 27.3125 C3.69362224 30.95629259 -9.36988232 27.41284859 -19.4375 22.6875 C-25.08514367 19.70951479 -29.99557005 16.03157421 -34.9765625 12.0703125 C-37.14825425 10.11545472 -37.14825425 10.11545472 -39.375 10.3125 C-39.53355469 10.96476562 -39.69210938 11.61703125 -39.85546875 12.2890625 C-41.64488504 18.99195887 -43.52339578 23.94228202 -49.7109375 27.75 C-54.48244395 30.27187728 -57.9105352 31.40175587 -63.375 32.3125 C-63.705 36.6025 -64.035 40.8925 -64.375 45.3125 C-66.025 44.6525 -67.675 43.9925 -69.375 43.3125 C-69.97553066 29.08325971 -68.80586473 17.73432507 -59.375 6.3125 C-43.03778578 -10.73368767 -19.61530591 -14.58574029 0 0 Z " fill="#F1F6FC" transform="translate(108.375,16.6875)"/>
<path d="M0 0 C4.62 0 9.24 0 14 0 C14.77085937 2.10761719 15.54171875 4.21523438 16.3359375 6.38671875 C17.08706065 8.43878627 17.83843997 10.49075983 18.58984375 12.54272461 C19.1099683 13.96352505 19.62982853 15.38442228 20.14941406 16.80541992 C20.89838488 18.85361119 21.64832083 20.9014469 22.3984375 22.94921875 C23.07398682 24.79519653 23.07398682 24.79519653 23.76318359 26.6784668 C24.80279241 29.47038901 25.87785836 32.2404476 27 35 C27.35827881 33.97527588 27.71655762 32.95055176 28.08569336 31.89477539 C29.41157153 28.10501892 30.74121572 24.31659307 32.07202148 20.52856445 C32.64825151 18.88667462 33.22344977 17.24442231 33.79760742 15.60180664 C34.62149527 13.24530256 35.44904495 10.89011293 36.27734375 8.53515625 C36.53466782 7.79660904 36.79199188 7.05806183 37.05711365 6.2971344 C38.88612829 1.11387171 38.88612829 1.11387171 40 0 C44.62 0 49.24 0 54 0 C54 16.83 54 33.66 54 51 C50.37 51 46.74 51 43 51 C42.67 41.43 42.34 31.86 42 22 C38.7 31.57 35.4 41.14 32 51 C28.7 51 25.4 51 22 51 C16.555 35.655 16.555 35.655 11 20 C10.67 30.23 10.34 40.46 10 51 C6.7 51 3.4 51 0 51 C0 34.17 0 17.34 0 0 Z " fill="#4E627B" transform="translate(413,43)"/>
<path d="M0 0 C3.97794 3.19684652 5.69107338 6.63884401 7.625 11.3125 C5.54281638 11.42082169 3.45900871 11.49823541 1.375 11.5625 C-0.36523438 11.63210937 -0.36523438 11.63210937 -2.140625 11.703125 C-6.01195317 11.23557329 -6.91627246 10.22226929 -9.375 7.3125 C-14.43164931 4.84297359 -19.01644559 4.99686926 -24.375 6.3125 C-29.26416584 8.75708292 -31.61243809 11.12273437 -33.375 16.3125 C-34.11137976 22.00921566 -33.65700442 26.44607966 -30.375 31.3125 C-25.19677555 35.98553182 -21.98625094 36.64526903 -15.1484375 36.609375 C-10.80626719 36.14457931 -8.44705206 34.38455206 -5.375 31.3125 C-11.645 30.9825 -17.915 30.6525 -24.375 30.3125 C-24.375 27.0125 -24.375 23.7125 -24.375 20.3125 C-13.155 20.3125 -1.935 20.3125 9.625 20.3125 C9.625 28.77075898 8.32515197 34.46703351 2.4609375 40.703125 C-4.59339683 46.88692445 -11.57309733 48.0696759 -20.8125 47.734375 C-28.27472599 46.85069034 -34.16638896 43.75786609 -39.375 38.3125 C-44.23058158 30.69357931 -46.1481362 24.0841023 -44.6875 15.1875 C-42.83784008 7.26902127 -38.01389462 1.82193785 -31.375 -2.6875 C-20.73723765 -7.41539438 -9.65856277 -6.6009172 0 0 Z " fill="#4F627C" transform="translate(336.375,111.6875)"/>
<path d="M0 0 C3.96 0 7.92 0 12 0 C12.43868408 0.79172607 12.87736816 1.58345215 13.3293457 2.39916992 C14.96683596 5.3534942 16.60510607 8.30738321 18.24389648 11.26098633 C18.95123798 12.53620491 19.65827375 13.81159314 20.36499023 15.0871582 C21.38443774 16.92704902 22.40500544 18.76631462 23.42578125 20.60546875 C24.03848877 21.71043701 24.65119629 22.81540527 25.2824707 23.95385742 C26.80946611 26.66207656 28.40040912 29.33401521 30 32 C30.33 21.44 30.66 10.88 31 0 C34.63 0 38.26 0 42 0 C42 16.83 42 33.66 42 51 C30 51 30 51 27.46484375 48.82421875 C26.70880859 47.27154297 26.70880859 47.27154297 25.9375 45.6875 C25.32777344 44.5221875 24.71804688 43.356875 24.08984375 42.15625 C23.76741699 41.50269531 23.44499023 40.84914062 23.11279297 40.17578125 C21.4275039 36.8806307 19.53963725 33.71002681 17.66235352 30.52148438 C15.41774267 26.69486626 13.21295599 22.84501103 11 19 C10.67 29.56 10.34 40.12 10 51 C6.7 51 3.4 51 0 51 C0 34.17 0 17.34 0 0 Z " fill="#4D617B" transform="translate(257,43)"/>
<path d="M0 0 C5.40219335 4.3023456 8.38086137 10.74393337 9.75 17.4375 C10.39054959 25.44436984 8.63827852 32.63369897 3.4375 38.8125 C-2.47411319 44.99907194 -7.64576043 47.58326782 -16.3125 47.8125 C-24.46615492 47.84386021 -30.15003278 46.01621902 -36.30859375 40.640625 C-41.58657118 35.15416198 -44.2475514 29.04686381 -44.625 21.4375 C-44.24479363 13.45316633 -41.04966658 5.97190116 -35.25 0.4375 C-23.60278411 -6.97771011 -11.69416649 -7.75947514 0 0 Z M-30.6875 11.0625 C-33.95900014 16.03518021 -33.84628965 20.58226695 -33.25 26.4375 C-30.79432448 31.43980198 -27.2529693 34.93601535 -22.25 37.4375 C-15.43144874 38.19788689 -10.70421962 37.6917913 -5.25 33.4375 C-1.52800167 28.66570727 -0.59204801 24.90191373 -0.8671875 18.8671875 C-1.68332802 13.6871936 -3.99220926 10.549036 -7.9375 7.0625 C-16.61196776 2.80710072 -24.06123315 3.92652032 -30.6875 11.0625 Z " fill="#4D617B" transform="translate(397.25,47.5625)"/>
<path d="M0 0 C6.6122098 5.36564565 9.96245606 10.90038575 10.90625 19.39453125 C11.16966454 27.43880598 9.88958228 33.61410447 5.0078125 40.05859375 C-0.9285509 46.37140947 -7.33957299 48.67537303 -15.9296875 48.99609375 C-24.51980201 48.67537303 -30.9308241 46.37140947 -36.8671875 40.05859375 C-42.55314446 32.53637874 -43.59309394 24.6783453 -42.4296875 15.37109375 C-40.23267531 8.04771979 -35.89840863 2.43521174 -29.4296875 -1.62890625 C-19.54645486 -6.02843747 -9.14977345 -6.13417287 0 0 Z M-28.7421875 11.87109375 C-32.34402931 16.18195953 -32.8879466 19.78033278 -32.4296875 25.37109375 C-30.61976138 30.64348722 -28.19516368 34.31630132 -23.4296875 37.37109375 C-17.84728298 39.23189526 -12.37836781 39.30934723 -7.0546875 36.74609375 C-2.10301289 32.2660072 0.22621084 28.23704471 0.66015625 21.60546875 C0.44777415 16.32361823 -1.84508932 12.62594797 -5.4921875 8.99609375 C-13.43220486 2.72146138 -22.33237814 4.71877693 -28.7421875 11.87109375 Z " fill="#4E617B" transform="translate(276.4296875,110.62890625)"/>
<path d="M0 0 C27.09643606 0 27.09643606 0 35.3046875 7.92578125 C40.15506518 13.86022952 41.71716266 20.63956245 41.375 28.19921875 C40.26832318 36.46471128 37.65160982 42.31476029 31.1953125 47.66015625 C21.32808555 53.68232501 12.14333507 51 0 51 C0 34.17 0 17.34 0 0 Z M10 10 C10 20.56 10 31.12 10 42 C20.60724682 41.30020149 20.60724682 41.30020149 28.375 35.5625 C30.74543499 30.36577714 30.77107591 25.62114335 30 20 C27.76536895 15.45092964 25.03140185 12.19090787 20.25 10.3125 C16.86424562 9.84225634 13.4182542 10 10 10 Z " fill="#485C77" transform="translate(308,43)"/>
<path d="M0 0 C18 0 18 0 26 3 C30.14038694 7.24389662 30.44240976 10.97293721 30.43359375 16.6328125 C29.92014444 19.4359682 28.8499386 20.87036246 27 23 C27.804375 23.763125 28.60875 24.52625 29.4375 25.3125 C33.41196751 29.48084397 33.28669464 33.06989857 33.21484375 38.5625 C32.81084094 43.14609557 30.81889919 45.26299073 27.5 48.25 C19.0211848 54.18517064 12.13332064 51 0 51 C0 34.17 0 17.34 0 0 Z M10 10 C10 13.3 10 16.6 10 20 C15.58500567 19.80101292 15.58500567 19.80101292 20 17 C19.90888062 14.46048456 19.90888062 14.46048456 19 12 C15.5647952 9.70986347 14.014669 9.82157027 10 10 Z M10 30 C10 33.96 10 37.92 10 42 C11.588125 41.896875 13.17625 41.79375 14.8125 41.6875 C15.70582031 41.62949219 16.59914062 41.57148438 17.51953125 41.51171875 C20.34300139 40.92923908 21.34413484 40.33704046 23 38 C23 34.91666667 23 34.91666667 22 32 C17.7975546 29.19836974 14.99895065 29.85510288 10 30 Z " fill="#465B75" transform="translate(165,107)"/>
<path d="M0 0 C4.62 0 9.24 0 14 0 C14 30.03 14 60.06 14 91 C9.38 91 4.76 91 0 91 C0 60.97 0 30.94 0 0 Z " fill="#EEF4F9" transform="translate(74,98)"/>
<path d="M0 0 C24.41935484 0 24.41935484 0 30.3125 4.9375 C34.09592101 9.56168123 34.43382866 13.37498879 34.31640625 19.23828125 C33.83091079 23.47587746 32.60819227 25.61639922 30 29 C27.01481593 31.25709039 25.75081172 32 22 32 C22.35827881 32.50450684 22.71655762 33.00901367 23.08569336 33.52880859 C24.70439405 35.80986028 26.3209706 38.09240912 27.9375 40.375 C28.50146484 41.1690625 29.06542969 41.963125 29.64648438 42.78125 C30.18466797 43.54179688 30.72285156 44.30234375 31.27734375 45.0859375 C31.77484131 45.7876709 32.27233887 46.4894043 32.78491211 47.21240234 C34 49 34 49 35 51 C30.54970012 51.5420666 26.43270371 51.76122365 22 51 C18.79376309 48.48002955 17.01037936 45.50610161 15 42 C13.68 40.02 12.36 38.04 11 36 C10.67 40.95 10.34 45.9 10 51 C6.7 51 3.4 51 0 51 C0 34.17 0 17.34 0 0 Z M10 10 C10 14.62 10 19.24 10 24 C16.47747508 24.60407835 16.47747508 24.60407835 22.125 21.875 C24.26187772 19.13500227 24.26187772 19.13500227 24.125 15.875 C23.21144569 12.9134982 23.21144569 12.9134982 20.9375 11.125 C17.06136357 9.64052222 14.1351269 9.78973931 10 10 Z " fill="#495D77" transform="translate(165,43)"/>
<path d="M0 0 C2.05078125 0.03255208 4.1015625 0.06510417 6.15234375 0.09765625 C10.71749566 9.7369928 14.91983241 19.50280349 19.01367188 29.34936523 C20.04242002 31.82138361 21.07768047 34.29061136 22.11328125 36.75976562 C22.76992125 38.33447285 23.42618581 39.90933669 24.08203125 41.484375 C24.39131561 42.22072678 24.70059998 42.95707855 25.01925659 43.71574402 C27.15234375 48.86831518 27.15234375 48.86831518 27.15234375 51.09765625 C23.52234375 51.09765625 19.89234375 51.09765625 16.15234375 51.09765625 C11.15234375 41.47265625 11.15234375 41.47265625 11.15234375 38.09765625 C2.73734375 38.59265625 2.73734375 38.59265625 -5.84765625 39.09765625 C-7.82765625 43.05765625 -9.80765625 47.01765625 -11.84765625 51.09765625 C-15.47765625 51.09765625 -19.10765625 51.09765625 -22.84765625 51.09765625 C-20.78676339 44.69706821 -18.45802375 38.48995302 -15.87109375 32.28515625 C-15.5003775 31.39022461 -15.12966125 30.49529297 -14.74771118 29.57324219 C-13.97101653 27.70038063 -13.19278908 25.82815405 -12.41308594 23.95654297 C-11.21511972 21.07955684 -10.0232602 18.20009381 -8.83203125 15.3203125 C-8.07457781 13.49594463 -7.31677793 11.67172055 -6.55859375 9.84765625 C-6.20131195 8.98422607 -5.84403015 8.1207959 -5.47592163 7.23120117 C-5.14532745 6.4394751 -4.81473328 5.64774902 -4.47412109 4.83203125 C-4.18338715 4.13303711 -3.8926532 3.43404297 -3.59310913 2.71386719 C-2.39988365 0.12684374 -2.39988365 0.12684374 0 0 Z M1.15234375 17.09765625 C-0.16765625 21.05765625 -1.48765625 25.01765625 -2.84765625 29.09765625 C0.12234375 29.09765625 3.09234375 29.09765625 6.15234375 29.09765625 C5.84296875 27.67453125 5.53359375 26.25140625 5.21484375 24.78515625 C5.04082031 23.98464844 4.86679688 23.18414062 4.6875 22.359375 C4.15348216 19.95225525 4.15348216 19.95225525 3.15234375 17.09765625 C2.49234375 17.09765625 1.83234375 17.09765625 1.15234375 17.09765625 Z " fill="#4A5E78" transform="translate(224.84765625,42.90234375)"/>
<path d="M0 0 C2.89865177 2.12646995 4.54079286 3.77786109 5.4921875 7.296875 C5.78125 9.7734375 5.78125 9.7734375 5.84375 13.8984375 C2.54375 13.8984375 -0.75625 13.8984375 -4.15625 13.8984375 C-4.81625 12.5784375 -5.47625 11.2584375 -6.15625 9.8984375 C-8.71144921 9.08672522 -8.71144921 9.08672522 -11.15625 8.8984375 C-11.81625 10.5484375 -12.47625 12.1984375 -13.15625 13.8984375 C-10.62141054 16.93150403 -7.95192011 17.87906094 -4.28125 19.2109375 C1.1014757 21.41089069 4.03039063 22.75678072 6.84375 27.8984375 C8.2728495 33.0208122 8.45313849 37.38514268 6.21875 42.2734375 C3.8969457 46.26403865 0.97816653 48.83122923 -3.15625 50.8984375 C-8.52560226 51.39544886 -14.20948301 51.84487782 -19.15625 49.3984375 C-22.78184885 46.37710512 -24.74235291 43.39480588 -26.15625 38.8984375 C-26.15625 37.5784375 -26.15625 36.2584375 -26.15625 34.8984375 C-22.52625 34.8984375 -18.89625 34.8984375 -15.15625 34.8984375 C-14.82625 36.5484375 -14.49625 38.1984375 -14.15625 39.8984375 C-12.8775 39.9190625 -11.59875 39.9396875 -10.28125 39.9609375 C-9.56195313 39.97253906 -8.84265625 39.98414063 -8.1015625 39.99609375 C-6.07439596 40.02492992 -6.07439596 40.02492992 -4.15625 38.8984375 C-4.15625 36.2584375 -4.15625 33.6184375 -4.15625 30.8984375 C-4.9915625 30.66060547 -4.9915625 30.66060547 -5.84375 30.41796875 C-12.46658943 28.39308034 -18.41093128 25.90112985 -23.15625 20.7109375 C-25.13866771 15.13538769 -25.05726192 9.92571432 -22.65625 4.5234375 C-16.34136347 -2.10719336 -8.47142094 -4.32779113 0 0 Z " fill="#50637D" transform="translate(375.15625,108.1015625)"/>
<path d="M0 0 C3.3 0 6.6 0 10 0 C10 13.86 10 27.72 10 42 C15.28 42 20.56 42 26 42 C26 44.97 26 47.94 26 51 C17.42 51 8.84 51 0 51 C0 34.17 0 17.34 0 0 Z " fill="#455974" transform="translate(205,107)"/>
<path d="M0 0 C19.78364362 2.52742584 41.54620797 10.74665617 55 26 C55 26.66 55 27.32 55 28 C49.01330067 27.31645678 43.5873882 25.2365841 37.94921875 23.21875 C36.89466995 22.84520386 35.84012115 22.47165771 34.75361633 22.08679199 C32.53305827 21.2990136 30.31336271 20.50880034 28.09448242 19.71630859 C24.68424496 18.49883794 21.27108595 17.28985632 17.85742188 16.08203125 C15.70034387 15.31560204 13.5434367 14.5486918 11.38671875 13.78125 C9.84778206 13.23591614 9.84778206 13.23591614 8.27775574 12.67956543 C7.33620132 12.34251587 6.39464691 12.00546631 5.42456055 11.65820312 C4.59216354 11.36143677 3.75976654 11.06467041 2.90214539 10.75891113 C1 10 1 10 0 9 C-0.07179964 7.48071962 -0.08392007 5.95832518 -0.0625 4.4375 C-0.05347656 3.61121094 -0.04445313 2.78492187 -0.03515625 1.93359375 C-0.02355469 1.29550781 -0.01195313 0.65742187 0 0 Z " fill="#EEF4FA" transform="translate(18,66)"/>
<path d="M0 0 C0 2.97 0 5.94 0 9 C-0.71728271 9.25579834 -1.43456543 9.51159668 -2.17358398 9.77514648 C-4.34572025 10.54993549 -6.51774741 11.32503038 -8.68969727 12.1003418 C-11.20412076 12.99744931 -13.7188791 13.89355405 -16.23413086 14.78833008 C-22.60941951 17.05870963 -28.97446079 19.35127465 -35.3203125 21.703125 C-36.45670166 22.12150635 -37.59309082 22.5398877 -38.76391602 22.97094727 C-40.93384675 23.77124072 -43.10110408 24.57882708 -45.26538086 25.39428711 C-46.72923218 25.93194702 -46.72923218 25.93194702 -48.22265625 26.48046875 C-49.07609619 26.79910889 -49.92953613 27.11774902 -50.80883789 27.44604492 C-53 28 -53 28 -56 27 C-42.66945507 12.11939171 -20.51916279 0 0 0 Z " fill="#EFF5FA" transform="translate(144,66)"/>
<path d="M0 0 C0 0.99 0 1.98 0 3 C-0.53625 3.14695313 -1.0725 3.29390625 -1.625 3.4453125 C-17.90943722 8.10566131 -33.79458962 14.1085286 -47 25 C-43.07897568 14.99462761 -28.14317831 8.99375189 -18.92333984 4.82958984 C-12.74044335 2.16273502 -6.80553128 -0.29429324 0 0 Z " fill="#D7DEE7" transform="translate(138,60)"/>
<path d="M0 0 C6.78606256 0.47407623 12.16518089 1.89573047 18.375 4.625 C19.61564209 5.16133057 19.61564209 5.16133057 20.88134766 5.70849609 C29.8434352 9.67624231 38.22898772 13.84098263 44 22 C40.44126017 20.30700727 37.12753725 18.27652235 33.75 16.25 C23.22073967 10.10419571 11.73226407 6.2150916 0 3 C0 2.01 0 1.02 0 0 Z " fill="#E3EAF1" transform="translate(24,60)"/>
<path d="M0 0 C0 0.99 0 1.98 0 3 C-6.01339937 4.95928381 -11.69632197 6.41632611 -18 7 C-17.67 6.01 -17.34 5.02 -17 4 C-14.453125 2.83203125 -14.453125 2.83203125 -11.25 1.8125 C-10.20328125 1.46832031 -9.1565625 1.12414063 -8.078125 0.76953125 C-5.22909507 0.05727377 -2.91669884 -0.15663753 0 0 Z " fill="#E4EBF2" transform="translate(138,60)"/>
<path d="M0 0 C5.61 0 11.22 0 17 0 C17.33 0.99 17.66 1.98 18 3 C11.73 3 5.46 3 -1 3 C-0.67 2.01 -0.34 1.02 0 0 Z " fill="#E1E8EF" transform="translate(138,116)"/>
<path d="M0 0 C5.61 0 11.22 0 17 0 C17.33 0.99 17.66 1.98 18 3 C11.73 3 5.46 3 -1 3 C-0.67 2.01 -0.34 1.02 0 0 Z " fill="#E1E8EF" transform="translate(7,116)"/>
<path d="M0 0 C5.94 0 11.88 0 18 0 C18 0.99 18 1.98 18 3 C12.06 3 6.12 3 0 3 C0 2.01 0 1.02 0 0 Z " fill="#F1F6FC" transform="translate(140,130)"/>
<path d="M0 0 C5.94 0 11.88 0 18 0 C18 0.99 18 1.98 18 3 C12.06 3 6.12 3 0 3 C0 2.01 0 1.02 0 0 Z " fill="#F1F6FC" transform="translate(4,130)"/>
<path d="M0 0 C5.94 0 11.88 0 18 0 C18 0.99 18 1.98 18 3 C12.06 3 6.12 3 0 3 C0 2.01 0 1.02 0 0 Z " fill="#E3EAF1" transform="translate(139,123)"/>
<path d="M0 0 C5.94 0 11.88 0 18 0 C18 0.99 18 1.98 18 3 C12.06 3 6.12 3 0 3 C0 2.01 0 1.02 0 0 Z " fill="#E3EAF1" transform="translate(5,123)"/>
<path d="M0 0 C2.99220268 1.36370299 5.29026529 2.94908083 7.75 5.125 C8.67039062 5.93324219 8.67039062 5.93324219 9.609375 6.7578125 C10.06828125 7.16773437 10.5271875 7.57765625 11 8 C7.36804504 8 6.25286089 7.04546845 3.3125 5 C2.50425781 4.443125 1.69601563 3.88625 0.86328125 3.3125 C0.24839844 2.879375 -0.36648437 2.44625 -1 2 C-0.67 1.34 -0.34 0.68 0 0 Z " fill="#DDE4EC" transform="translate(57,73)"/>
<path d="M0 0 C0.66 0.33 1.32 0.66 2 1 C-0.31 3.31 -2.62 5.62 -5 8 C-5.66 7.67 -6.32 7.34 -7 7 C-4.78071806 4.09197539 -3.07030857 2.04687238 0 0 Z " fill="#8795A6" transform="translate(365,46)"/>
<path d="M0 0 C0.66 0.33 1.32 0.66 2 1 C-0.31 3.31 -2.62 5.62 -5 8 C-5.33 7.34 -5.66 6.68 -6 6 C-2.25 1.125 -2.25 1.125 0 0 Z " fill="#8693A5" transform="translate(358,108)"/>
<path d="M0 0 C3 1 3 1 5 3 C2.36 3.66 -0.28 4.32 -3 5 C-2.67 3.68 -2.34 2.36 -2 1 C-1.34 0.67 -0.68 0.34 0 0 Z " fill="#DBE2EB" transform="translate(118,65)"/>
<path d="M0 0 C0.66 0.33 1.32 0.66 2 1 C0.68 2.32 -0.64 3.64 -2 5 C-2.99 4.67 -3.98 4.34 -5 4 C-3.36587557 2.29159719 -2.13093906 1.06546953 0 0 Z " fill="#E5ECF3" transform="translate(114,67)"/>
</svg>
